<?xml version="1.0" encoding="utf-8"?>
<!-- Generator: Adobe Illustrator 16.0.0, SVG Export Plug-In . SVG Version: 6.00 Build 0)  -->
<!DOCTYPE svg PUBLIC "-//W3C//DTD SVG 1.1//EN" "http://www.w3.org/Graphics/SVG/1.1/DTD/svg11.dtd">
<svg version="1.1" id="Ebene_1" xmlns="http://www.w3.org/2000/svg" xmlns:xlink="http://www.w3.org/1999/xlink" x="0px" y="0px"
	 width="595.281px" height="656px" viewBox="0 83.445 595.281 656" enable-background="new 0 83.445 595.281 656"
	 xml:space="preserve">
<path d="M269.931,734.525c-25.608-2.65-49.087-7.822-74.536-16.416c-12.934-4.367-32.396-12.268-33.906-13.766
	c-0.177-0.178,3.831-9.176,8.909-20.002c5.078-10.822,13.616-29.098,18.969-40.604c5.352-11.512,10.187-21.529,10.747-22.271
	c0.788-1.049,1.77-0.953,4.404,0.404c11.73,6.07,34.899,13.162,55.856,17.104c20.391,3.836,57.165,3.938,76.53,0.211
	c1.215-0.232,3.691-0.672,5.504-0.965c13.367-2.186,41.604-11.854,56.283-19.271c43.35-21.914,76.719-55.123,101.438-100.955
	l4.271-7.918l32.98,15.43c18.139,8.488,37.115,17.363,42.172,19.73l9.188,4.303l-6.893,12.939
	c-36.141,67.869-88.1,116.783-156.297,147.131c-22.342,9.941-52.27,18.623-76.533,22.205c-6.658,0.98-13.6,2.039-15.42,2.352
	C327.234,735.251,279.544,735.521,269.931,734.525L269.931,734.525z M296.708,597.572v-31.297l7.434-0.648
	c23.9-2.084,42.053-6.641,59.434-14.918c41.641-19.838,71.078-56.582,81.611-101.889c1.785-7.666,4.586-28.983,4.592-34.96
	c0-0.455,13.627-0.827,30.279-0.827h30.287l-0.006,11.835c-0.016,28.336-9.771,64.684-24.715,92.047
	c-28.092,51.461-76.74,89.498-132.568,103.646c-12.738,3.232-29.76,6.094-36.252,6.104c-2.572,0-4.68,0.5-4.68,1.104
	c0,0.627-3.305,1.104-7.705,1.104h-7.711V597.572L296.708,597.572z M284.783,510.869c-23.899-3.42-47.845-17.014-62.863-35.674
	c-13.966-17.365-20.219-33.41-22.621-58.031l-0.616-6.336h49.564h49.563v-49.619V311.59l7.982,0.721
	c50.396,4.563,87.352,41.059,92.801,91.637l0.744,6.88H348.57h-50.761v50.662v50.654l-3.027-0.139
	C293.116,511.933,288.62,511.423,284.783,510.869L284.783,510.869z M83.075,403.708c0-5.128,0.776-14.88,1.721-21.671
	c9.879-70.83,53.891-131.359,117.621-161.763c27.526-13.129,59.342-20.879,85.732-20.879h8.56v30.836v30.831l-5.777,0.011
	c-8.465,0.006-26.417,2.911-37.283,6.031c-61.509,17.647-104.323,71.102-108.556,135.529l-0.685,10.4h-30.667H83.075V403.708
	L83.075,403.708z M47.56,296.516c-22.864-10.7-41.572-19.969-41.572-20.596c0-2.251,14.749-27.82,24.836-43.061
	c31.328-47.334,75.272-86.182,124.249-109.849c26.303-12.712,54.463-22.325,77.769-26.55c66.142-11.992,121.902-6.271,186.101,19.09
	c6.365,2.515,12.158,4.949,12.879,5.414c1.23,0.798-3.354,11.116-33.01,74.295l-5.039,10.728l-8.791-3.764
	c-30.145-12.901-64.223-19.126-98.108-17.93c-64.127,2.268-122.013,30.736-163.948,80.626c-9.746,11.593-22.547,30.842-28.46,42.79
	c-2.292,4.628-4.427,8.382-4.748,8.338C89.395,316.008,70.423,307.216,47.56,296.516L47.56,296.516z"/>
</svg>
