<?xml version="1.0" encoding="utf-8"?>
<!-- Generator: Adobe Illustrator 16.0.0, SVG Export Plug-In . SVG Version: 6.00 Build 0)  -->
<!DOCTYPE svg PUBLIC "-//W3C//DTD SVG 1.1//EN" "http://www.w3.org/Graphics/SVG/1.1/DTD/svg11.dtd">
<svg version="1.1" id="Ebene_1" xmlns="http://www.w3.org/2000/svg" xmlns:xlink="http://www.w3.org/1999/xlink" x="0px" y="0px"
	 width="595.281px" height="180px" viewBox="0 201.445 595.281 180" enable-background="new 0 201.445 595.281 180"
	 xml:space="preserve">
<path d="M12,292.043v-78.847h20.189h20.19v4.874v4.874H37.238H22.095v69.099v69.1h15.143H52.38v4.874v4.874H32.19H12V292.043
	L12,292.043z M543.91,366.017v-4.874h15.141h15.146v-69.1v-69.099H559.05H543.91v-4.874v-4.874h20.189h20.189v78.847v78.847h-20.189
	H543.91V366.017L543.91,366.017z M40.197,332.583c0-12.69,0.28-14.949,2.337-18.875c1.539-2.934,4.502-5.748,7.622-7.237
	c3.896-1.859,5.953-2.045,22.85-2.059l15.229-0.011v4.7v4.699H72.808c-17.479,0-18.059,0.068-20.394,2.403
	c-0.728,0.727-1.493,1.814-1.705,2.418l-0.382,1.097h17.388h17.387v4.348v4.348l-17.667,0.09l-17.667,0.089l-0.094,7.572
	l-0.094,7.572h-4.692h-4.692L40.197,332.583L40.197,332.583z M101.811,324.069v-19.667h26.108h26.108l-0.004,5.308
	c-0.008,7.792-1.036,11.316-4.221,14.462c-1.821,1.801-4.147,2.985-7.479,3.809l-2.48,0.613l7.237,7.485l7.236,7.484l-5.789,0.097
	l-5.79,0.095l-7.673-7.667l-7.672-7.667h-5.829h-5.828v-4.352v-4.351h11.784c7.886,0,12.175-0.131,12.967-0.396
	c1.517-0.508,2.646-1.533,3.479-3.158c1.305-2.543,2.53-2.363-16.047-2.363H111.21v14.969v14.969h-4.699h-4.7V324.069
	L101.811,324.069z M169.693,324.069v-19.667l16.97,0.011c18.723,0.014,20.674,0.175,24.655,2.038
	c2.822,1.32,5.985,4.286,7.388,6.928c2.096,3.951,2.235,5.003,2.413,18.262l0.162,12.097h-4.908h-4.907v-7.485v-7.484h-16.013
	H179.44v7.484v7.485h-4.875h-4.873L169.693,324.069L169.693,324.069z M210.77,319.438c0-0.969-2.176-3.53-3.576-4.207
	c-2.509-1.215-4.987-1.427-16.702-1.429L179.44,313.8v2.958v2.959h15.665C203.72,319.718,210.77,319.591,210.77,319.438
	L210.77,319.438z M237.229,332.685c0.001-6.079,0.163-12.043,0.359-13.254c1.114-6.862,5.053-11.543,11.686-13.882l2.747-0.97
	l18.362-0.111l18.363-0.111v4.721v4.722h-17.215c-11.279,0-17.834,0.133-19.013,0.385c-1.211,0.26-2.238,0.784-3.148,1.605
	c-2.072,1.873-2.398,3.454-2.398,11.649v6.899h16.187h16.187v-2.959v-2.959h-3.481h-3.481v-4.352v-4.351h8.355h8.354v12.01v12.01
	H263.16h-25.935L237.229,332.685L237.229,332.685z M304.412,324.069v-19.667l20.797,0.011c23.119,0.014,24.424,0.112,28.754,2.171
	c5.09,2.42,8.77,7.313,9.619,12.786c0.193,1.244,0.352,7.236,0.352,13.315l0.004,11.053h-4.873h-4.873v-10.856
	c0-12.792-0.207-14.084-2.646-16.523c-2.521-2.522-2.816-2.558-21.262-2.558H314.16v14.969v14.969h-4.873h-4.873v-19.67H304.412z
	 M328.779,331.206v-12.532h4.699h4.699v12.532v12.532h-4.699h-4.699V331.206L328.779,331.206z M393.244,343.033
	c-3.4-0.891-5.744-2.207-8.063-4.526c-2.357-2.356-3.641-4.672-4.543-8.201c-0.619-2.418-0.688-3.874-0.688-14.297v-11.606h24.891
	h24.887v4.7v4.699h-20.201h-20.205l0.102,2.872l0.1,2.872l17.146,0.09l17.146,0.09v4.348v4.348H407.16
	c-9.156,0-16.748,0.099-16.867,0.218c-0.283,0.282,0.666,2.159,1.619,3.21c0.408,0.45,1.373,1.154,2.139,1.567
	c1.361,0.734,1.744,0.752,18.535,0.849l17.143,0.099v4.687v4.688l-16.969-0.02C397.195,343.701,395.578,343.644,393.244,343.033
	L393.244,343.033z M444.701,324.069v-19.667h4.188c3.967,0,4.361,0.065,7.398,1.237c9.066,3.496,18.512,10.075,27.727,19.318
	l4.723,4.734l-0.111-12.644l-0.109-12.645h4.721h4.725v19.667v19.669h-5.016h-5.018L484.5,339.3
	c-4.146-5.375-13.059-14.425-17.348-17.618c-2.773-2.065-10.139-6.064-12.271-6.664l-0.783-0.221v14.47v14.47h-4.699h-4.697V324.069
	L444.701,324.069z M529.636,328.769V313.8h-8.703h-8.701v-4.699v-4.7h21.932h21.932v4.7v4.699h-8.529h-8.529v14.969v14.969h-4.699
	h-4.699v-14.969H529.636z M40.892,275.017v-4.73l16.623-0.001c10.526-0.001,17.104-0.137,17.937-0.368
	c1.847-0.513,3.58-2.158,4.205-3.993l0.53-1.556H60.54H40.892v-4.152c0-10.064,1.984-14.912,7.25-17.718
	c3.866-2.061,4.731-2.139,23.82-2.144l17.319-0.005v4.525v4.525H72.449c-11.639,0-17.197,0.123-18.015,0.396
	c-1.514,0.506-3.051,1.906-3.663,3.336c-1.01,2.358-2.504,2.187,19.015,2.187H89.28v5.414c0,6.607-0.541,9.365-2.399,12.236
	c-1.958,3.027-4.61,4.8-8.817,5.899c-1.843,0.479-4.94,0.594-19.679,0.724l-17.493,0.154V275.017L40.892,275.017z M112.429,279.33
	c-7.914-0.846-12.898-4.594-15.451-11.619c-0.892-2.457-0.899-2.551-1.018-14.917l-0.12-12.445h24.568h24.569v4.523v4.522
	l-19.756,0.09l-19.755,0.09l-0.1,4.524c-0.192,8.684,0.756,12.243,3.81,14.303c2.583,1.742,4.155,1.885,20.716,1.885h15.085v4.699
	v4.7l-15.056-0.047C121.641,279.612,113.769,279.474,112.429,279.33L112.429,279.33z M151.591,260.018V240.35h4.699h4.699v7.485
	v7.484h15.317h15.316v-7.484v-7.485h4.874h4.873v19.668v19.668h-4.873h-4.874v-7.658v-7.659h-15.316H160.99v7.659v7.658h-4.699
	h-4.699L151.591,260.018L151.591,260.018z M225.391,279.34c-8.205-0.894-14.285-5.807-16.177-13.07
	c-0.428-1.646-0.533-4.389-0.533-13.983V240.35h4.7h4.699v10.031c0,5.758,0.163,10.907,0.381,12.085
	c0.684,3.699,1.956,5.434,5.02,6.846c1.731,0.798,1.798,0.801,19.751,0.905l18.015,0.104v-14.986v-14.986h4.873h4.874v19.668v19.668
	l-21.669-0.049C237.404,279.609,226.635,279.476,225.391,279.34L225.391,279.34z M277.607,260.018V240.35h17.854
	c19.541,0,19.886,0.03,24.128,2.093c2.791,1.358,5.264,3.841,6.873,6.903c2.055,3.91,2.316,6.055,2.316,19.057v11.283h-4.693h-4.691
	l-0.096-7.572l-0.092-7.571h-16.014H287.18l-0.094,7.571l-0.094,7.572H282.3h-4.692L277.607,260.018L277.607,260.018z
	 M318.333,255.022c0-1.105-1.955-3.408-3.535-4.166c-2.426-1.162-6.602-1.491-17.522-1.383l-10.096,0.101l-0.104,2.577
	c-0.057,1.419-0.021,2.789,0.077,3.046c0.147,0.382,3.025,0.468,15.681,0.468C317.685,255.666,318.333,255.639,318.333,255.022
	L318.333,255.022z M336.087,260.018V240.35h26.109h26.107v5.497c0,6.051-0.414,8.395-2.002,11.31
	c-1.779,3.272-5.504,5.74-9.928,6.579l-2.268,0.43l7.184,7.441c3.953,4.093,7.238,7.584,7.305,7.76
	c0.066,0.185-2.277,0.319-5.572,0.319h-5.689l-7.652-7.658l-7.65-7.659h-6.008h-6.01v-4.525v-4.526l12.271-0.006
	c12.084-0.005,12.291-0.017,13.658-0.79c1.461-0.828,2.947-3.01,2.957-4.339l0.006-0.783h-16.533h-16.535v15.143v15.143h-4.875
	h-4.873v-19.668H336.087z M405.99,267.241c6.709-6.845,13.387-13.616,14.836-15.047c1.451-1.431,2.639-2.723,2.639-2.872
	c0-0.148-5.641-0.27-12.533-0.27h-12.529V244.7v-4.351h23.23h23.234l-6.092,6.179c-3.352,3.398-10.008,10.173-14.793,15.055
	l-8.699,8.877l14.359,0.091l14.359,0.091v4.521v4.522h-25.105h-25.105L405.99,267.241L405.99,267.241z M469.066,279.455
	c-8.973-0.876-14.615-5.33-16.936-13.361c-0.432-1.498-0.586-4.415-0.723-13.822l-0.176-11.923h25.102h25.107v4.525v4.525H481.25
	h-20.191v2.959v2.959h17.232h17.23v4.526v4.525h-16.906h-16.906l0.23,0.784c0.367,1.243,2.008,3.115,3.326,3.799
	c2.27,1.176,4.705,1.335,20.555,1.335h15.621v4.699v4.7l-15.578-0.056C477.294,279.6,469.736,279.521,469.066,279.455
	L469.066,279.455z M507.011,275.017v-4.73h16.381c10.682,0,16.904-0.132,17.891-0.38c1.805-0.455,3.535-2.113,4.188-4.015
	l0.463-1.349l-19.461-0.09l-19.461-0.09v-5.884c0-4.785,0.123-6.276,0.654-7.991c1.27-4.077,3.215-6.48,6.662-8.227
	c3.568-1.809,4.691-1.901,23.402-1.906l17.316-0.005v4.525v4.525l-16.969,0.008c-15.721,0.007-17.072,0.054-18.363,0.646
	c-0.766,0.352-1.66,0.941-1.988,1.311c-0.615,0.692-1.666,2.959-1.666,3.593c0,0.243,6.336,0.359,19.527,0.359h19.525l-0.141,6.527
	c-0.123,5.79-0.229,6.757-0.938,8.562c-1.111,2.827-3.264,5.328-5.773,6.715c-4.018,2.219-4.756,2.295-23.934,2.468l-17.318,0.157
	v-4.729H507.011z M235.485,252.881v-12.532h4.874h4.874v12.532v12.532h-4.874h-4.874V252.881L235.485,252.881z"/>
</svg>
