<?xml version="1.0" encoding="UTF-8" standalone="no"?>
<!-- Generator: Adobe Illustrator 16.0.0, SVG Export Plug-In . SVG Version: 6.00 Build 0)  -->

<svg
   version="1.1"
   id="Ebene_1"
   x="0px"
   y="0px"
   width="595.28px"
   height="841.89px"
   viewBox="0 0 595.28 841.89"
   enable-background="new 0 0 595.28 841.89"
   xml:space="preserve"
   sodipodi:docname="schwarzes-fragment-with-brackets-and-logo-underneath-white.svg"
   inkscape:version="1.4.2 (ebf0e94, 2025-05-08)"
   xmlns:inkscape="http://www.inkscape.org/namespaces/inkscape"
   xmlns:sodipodi="http://sodipodi.sourceforge.net/DTD/sodipodi-0.dtd"
   xmlns="http://www.w3.org/2000/svg"
   xmlns:svg="http://www.w3.org/2000/svg"><defs
   id="defs1" /><sodipodi:namedview
   id="namedview1"
   pagecolor="#ffffff"
   bordercolor="#000000"
   borderopacity="0.25"
   inkscape:showpageshadow="2"
   inkscape:pageopacity="0.0"
   inkscape:pagecheckerboard="0"
   inkscape:deskcolor="#d1d1d1"
   inkscape:zoom="1.5263276"
   inkscape:cx="297.77355"
   inkscape:cy="420.94501"
   inkscape:window-width="2560"
   inkscape:window-height="1566"
   inkscape:window-x="-11"
   inkscape:window-y="-11"
   inkscape:window-maximized="1"
   inkscape:current-layer="Ebene_1" />
<g
   id="g1"
   style="fill:#ffffff;fill-opacity:1">
	<path
   d="M288.531,621.169c-8.275-0.855-15.862-2.527-24.086-5.305c-4.18-1.412-10.47-3.965-10.958-4.449   c-0.058-0.057,1.238-2.965,2.88-6.463c1.641-3.498,4.4-9.404,6.13-13.123c1.729-3.719,3.292-6.957,3.473-7.197   c0.254-0.338,0.572-0.309,1.422,0.131c3.792,1.963,11.279,4.254,18.051,5.527c6.589,1.24,18.475,1.271,24.733,0.068   c0.393-0.076,1.193-0.217,1.779-0.313c4.32-0.705,13.444-3.83,18.189-6.227c14.008-7.084,24.793-17.814,32.781-32.627l1.38-2.559   l10.659,4.986c5.861,2.742,11.994,5.611,13.629,6.377l2.969,1.391l-2.227,4.182c-11.681,21.934-28.473,37.74-50.512,47.549   c-7.221,3.213-16.892,6.018-24.734,7.176c-2.15,0.316-4.395,0.658-4.982,0.76C307.05,621.404,291.638,621.492,288.531,621.169   L288.531,621.169z M297.186,576.91v-10.113l2.402-0.209c7.724-0.674,13.59-2.146,19.206-4.822   c13.457-6.41,22.972-18.285,26.375-32.928c0.578-2.477,1.482-9.365,1.484-11.297c0-0.146,4.404-0.268,9.785-0.268h9.789   l-0.002,3.826c-0.006,9.156-3.159,20.902-7.988,29.746c-9.078,16.631-24.799,28.924-42.842,33.496   c-4.117,1.043-9.617,1.969-11.715,1.973c-0.832,0-1.513,0.16-1.513,0.355c0,0.203-1.067,0.357-2.491,0.357h-2.491V576.91   L297.186,576.91z M293.331,548.89c-7.723-1.105-15.463-5.498-20.315-11.529c-4.513-5.611-6.535-10.797-7.31-18.754l-0.2-2.047   h16.018h16.018v-16.035V484.49l2.58,0.232c16.286,1.475,28.229,13.27,29.99,29.615l0.24,2.223h-16.406h-16.404v16.373v16.369   l-0.979-0.045C296.024,549.234,294.57,549.07,293.331,548.89L293.331,548.89z M228.145,514.259c0-1.656,0.251-4.809,0.557-7.004   c3.193-22.891,17.416-42.451,38.011-52.277c8.896-4.242,19.178-6.746,27.707-6.746h2.767v9.965v9.963l-1.868,0.004   c-2.736,0.002-8.537,0.941-12.049,1.949c-19.877,5.703-33.713,22.979-35.082,43.799l-0.221,3.361h-9.911h-9.911V514.259   L228.145,514.259z M216.667,479.617c-7.389-3.457-13.435-6.453-13.435-6.654c0-0.729,4.767-8.992,8.026-13.916   c10.125-15.299,24.326-27.852,40.153-35.5c8.5-4.108,17.601-7.215,25.132-8.581c21.375-3.875,39.396-2.027,60.144,6.169   c2.057,0.812,3.928,1.599,4.162,1.749c0.396,0.258-1.084,3.592-10.668,24.01l-1.629,3.467l-2.842-1.217   c-9.741-4.168-20.754-6.18-31.706-5.793c-20.723,0.732-39.431,9.934-52.983,26.057c-3.15,3.746-7.287,9.967-9.197,13.828   c-0.74,1.496-1.431,2.709-1.535,2.693C230.187,485.917,224.056,483.076,216.667,479.617L216.667,479.617z M5.362,302.498V221.89   h20.641h20.641v4.982v4.982H31.164h-15.48v70.643v70.643h15.48h15.481v4.982v4.982H26.003H5.362V302.498L5.362,302.498z    M549.151,378.123v-4.982h15.479h15.482v-70.643v-70.643H564.63h-15.479v-4.982v-4.982h20.639h20.643v80.607v80.607H569.79h-20.639   V378.123L549.151,378.123z M34.188,343.943c0-12.974,0.286-15.283,2.391-19.296c1.572-3,4.602-5.876,7.792-7.399   c3.983-1.9,6.087-2.09,23.36-2.104l15.569-0.012v4.804v4.805H67.528c-17.869,0-18.462,0.07-20.85,2.457   c-0.743,0.743-1.526,1.855-1.742,2.472l-0.391,1.122h17.776h17.775v4.445v4.445l-18.062,0.093l-18.061,0.091l-0.096,7.741   l-0.096,7.741h-4.797h-4.798V343.943L34.188,343.943z M97.18,335.238v-20.106h26.691h26.691l-0.005,5.427   c-0.008,7.966-1.059,11.568-4.314,14.785c-1.862,1.841-4.24,3.051-7.646,3.894l-2.535,0.627l7.397,7.652l7.398,7.651l-5.919,0.098   l-5.918,0.098l-7.844-7.838l-7.844-7.838h-5.958h-5.958v-4.449v-4.448h12.047c8.063,0,12.446-0.134,13.256-0.406   c1.551-0.519,2.706-1.567,3.558-3.228c1.333-2.601,2.586-2.417-16.405-2.417h-17.083v15.303v15.303h-4.804H97.18V335.238   L97.18,335.238z M166.577,335.238v-20.106l17.349,0.012c19.141,0.013,21.136,0.178,25.206,2.083   c2.885,1.351,6.119,4.383,7.552,7.083c2.144,4.038,2.286,5.115,2.468,18.67l0.166,12.367H214.3h-5.017v-7.651v-7.651h-16.371   h-16.37v7.651v7.651h-4.983h-4.982V335.238L166.577,335.238z M208.571,330.504c0-0.991-2.225-3.608-3.655-4.301   c-2.565-1.242-5.098-1.458-17.075-1.461l-11.299-0.002v3.025v3.025h16.015C201.364,330.791,208.571,330.662,208.571,330.504   L208.571,330.504z M235.621,344.046c0.001-6.214,0.167-12.311,0.368-13.549c1.139-7.016,5.165-11.8,11.946-14.192l2.809-0.991   l18.772-0.114l18.773-0.113v4.826v4.828H270.69c-11.531,0-18.233,0.135-19.438,0.395c-1.238,0.265-2.289,0.801-3.219,1.641   c-2.119,1.915-2.452,3.53-2.452,11.909v7.053h16.549h16.548v-3.024v-3.025h-3.559h-3.559v-4.449v-4.448h8.542h8.542v12.278v12.278   h-26.514h-26.513L235.621,344.046L235.621,344.046z M304.304,335.238v-20.106l21.264,0.012c23.633,0.013,24.969,0.114,29.394,2.219   c5.203,2.475,8.966,7.477,9.835,13.072c0.197,1.272,0.359,7.398,0.359,13.612l0.004,11.3h-4.982h-4.982v-11.098   c0-13.078-0.212-14.399-2.705-16.893c-2.578-2.578-2.88-2.615-21.737-2.615h-16.483v15.303v15.303h-4.982h-4.982V335.238   L304.304,335.238z M329.215,342.534v-12.812h4.806h4.803v12.812v12.812h-4.803h-4.806V342.534L329.215,342.534z M395.121,354.625   c-3.478-0.911-5.873-2.255-8.243-4.626c-2.41-2.409-3.721-4.777-4.645-8.384c-0.632-2.472-0.703-3.961-0.703-14.618v-11.865h25.445   h25.445v4.804v4.805h-20.654H391.11l0.104,2.936l0.102,2.936l17.528,0.093l17.528,0.092v4.445v4.445h-17.025   c-9.361,0-17.123,0.1-17.244,0.223c-0.289,0.289,0.681,2.207,1.656,3.281c0.418,0.46,1.402,1.18,2.186,1.602   c1.393,0.75,1.783,0.768,18.949,0.867l17.527,0.102v4.792v4.792l-17.35-0.02C399.159,355.309,397.506,355.25,395.121,354.625   L395.121,354.625z M447.725,335.238v-20.106h4.284c4.055,0,4.459,0.067,7.563,1.264c9.27,3.574,18.926,10.3,28.346,19.75   l4.826,4.839l-0.112-12.926l-0.112-12.927h4.826h4.828v20.106v20.108h-5.127h-5.128l-3.503-4.538   c-4.238-5.494-13.352-14.747-17.737-18.011c-2.835-2.11-10.363-6.199-12.544-6.813l-0.801-0.225v14.793v14.793h-4.805h-4.804   V335.238L447.725,335.238z M534.56,340.043V324.74h-8.897h-8.897v-4.805v-4.804h22.421h22.421v4.804v4.805h-8.721h-8.718v15.303   v15.303h-4.806h-4.803V340.043L534.56,340.043z M34.9,285.09v-4.835l16.993-0.002c10.76-0.001,17.487-0.139,18.338-0.375   c1.888-0.525,3.66-2.207,4.299-4.082l0.542-1.591H54.986H34.9v-4.245c0-10.289,2.027-15.244,7.411-18.113   c3.953-2.107,4.836-2.187,24.352-2.192l17.705-0.005v4.627v4.626H67.161c-11.898,0-17.58,0.125-18.417,0.404   c-1.547,0.518-3.119,1.949-3.745,3.411c-1.032,2.411-2.56,2.235,19.439,2.235h19.93v5.535c0,6.754-0.553,9.574-2.452,12.509   c-2.002,3.095-4.713,4.908-9.015,6.031c-1.883,0.491-5.05,0.608-20.118,0.74L34.9,289.926V285.09L34.9,285.09z M108.034,289.5   c-8.09-0.865-13.186-4.697-15.796-11.878c-0.913-2.511-0.919-2.608-1.041-15.25l-0.123-12.723h25.118h25.117v4.624v4.623   l-20.196,0.092l-20.196,0.092l-0.102,4.626c-0.196,8.878,0.773,12.516,3.895,14.622c2.641,1.781,4.247,1.927,21.178,1.927h15.421   v4.805v4.804l-15.392-0.048C117.452,289.789,109.404,289.647,108.034,289.5L108.034,289.5z M148.071,269.756v-20.107h4.804h4.804   v7.651v7.651h15.659h15.659V257.3v-7.651h4.983h4.982v20.107v20.107h-4.982h-4.983v-7.83v-7.83h-15.659H157.68v7.83v7.83h-4.804   h-4.804V269.756L148.071,269.756z M223.519,289.511c-8.388-0.915-14.604-5.937-16.538-13.363   c-0.438-1.682-0.545-4.486-0.545-14.295v-12.203h4.805h4.804v10.255c0,5.887,0.166,11.15,0.388,12.355   c0.699,3.781,2,5.555,5.133,6.999c1.769,0.815,1.838,0.818,20.191,0.925l18.417,0.106v-15.32v-15.321h4.982h4.982v20.107v20.107   l-22.154-0.051C235.8,289.786,224.791,289.649,223.519,289.511L223.519,289.511z M276.9,269.756v-20.107h18.253   c19.977,0,20.332,0.031,24.668,2.14c2.854,1.388,5.383,3.927,7.027,7.058c2.1,3.998,2.366,6.19,2.366,19.482v11.535h-4.798h-4.797   l-0.096-7.74l-0.096-7.741h-16.371h-16.371l-0.096,7.741l-0.095,7.74h-4.798H276.9V269.756L276.9,269.756z M318.538,264.649   c0-1.129-2-3.483-3.615-4.258c-2.48-1.188-6.75-1.525-17.915-1.414l-10.321,0.102l-0.105,2.636   c-0.058,1.45-0.023,2.851,0.078,3.114c0.15,0.391,3.093,0.479,16.031,0.479C317.874,265.308,318.538,265.28,318.538,264.649   L318.538,264.649z M336.688,269.756v-20.107h26.691h26.691v5.62c0,6.187-0.424,8.583-2.047,11.563   c-1.82,3.345-5.627,5.867-10.15,6.726l-2.318,0.44l7.346,7.607c4.041,4.184,7.4,7.753,7.467,7.933   c0.068,0.189-2.328,0.326-5.697,0.326h-5.816l-7.824-7.83l-7.822-7.83h-6.142h-6.142v-4.626v-4.626l12.543-0.005   c12.355-0.006,12.566-0.018,13.963-0.809c1.494-0.846,3.016-3.077,3.025-4.435l0.006-0.801h-16.904h-16.904v15.48v15.481h-4.982   h-4.982V269.756L336.688,269.756z M408.15,277.141c6.86-6.998,13.687-13.92,15.168-15.383c1.483-1.463,2.696-2.784,2.696-2.936   c0-0.151-5.766-0.276-12.813-0.276h-12.811v-4.448v-4.449h23.751h23.753l-6.229,6.317c-3.424,3.474-10.229,10.4-15.121,15.392   l-8.895,9.075l14.682,0.093l14.678,0.093v4.623v4.623h-25.665h-25.667L408.15,277.141L408.15,277.141z M472.636,289.628   c-9.172-0.896-14.942-5.449-17.313-13.659c-0.443-1.532-0.599-4.513-0.74-14.13l-0.18-12.189h25.664h25.666v4.627v4.626h-20.643   H464.45v3.025v3.024h17.617h17.615v4.626v4.626h-17.283h-17.285l0.236,0.801c0.377,1.271,2.052,3.185,3.4,3.884   c2.318,1.203,4.811,1.365,21.016,1.365h15.967v4.805v4.804l-15.926-0.057C481.048,289.776,473.32,289.695,472.636,289.628   L472.636,289.628z M511.427,285.091v-4.836h16.747c10.923,0,17.282-0.135,18.29-0.389c1.845-0.464,3.613-2.159,4.281-4.104   l0.475-1.379l-19.896-0.092l-19.896-0.091v-6.016c0-4.892,0.126-6.417,0.67-8.169c1.298-4.168,3.287-6.626,6.811-8.411   c3.65-1.85,4.797-1.943,23.926-1.949l17.705-0.005v4.627v4.626l-17.348,0.008c-16.074,0.007-17.455,0.056-18.773,0.661   c-0.783,0.36-1.699,0.962-2.033,1.34c-0.629,0.708-1.705,3.026-1.705,3.673c0,0.248,6.478,0.367,19.963,0.367h19.963l-0.143,6.673   c-0.126,5.918-0.234,6.908-0.961,8.753c-1.136,2.889-3.336,5.446-5.901,6.864c-4.106,2.269-4.86,2.347-24.468,2.524l-17.705,0.16   V285.091L511.427,285.091z M233.839,262.461v-12.812h4.982h4.983v12.812v12.812h-4.983h-4.982V262.461L233.839,262.461z"
   id="path1"
   style="fill:#ffffff;fill-opacity:1" />
</g>
</svg>
